<svg width="16" height="16" viewBox="0 0 16 16" fill="none" xmlns="http://www.w3.org/2000/svg">
<rect width="16" height="16" fill="black"/>
<rect x="1" y="1" width="14" height="14" fill="#FCB5A8"/>
<rect x="1.93335" y="1.93335" width="13.0667" height="13.0667" fill="#FC8E2E"/>
<path d="M2 2H3V3H2V2Z" fill="black"/>
<path d="M13 2H14V3H13V2Z" fill="black"/>
<path d="M13 13H14V14H13V13Z" fill="black"/>
<path d="M2 13H3V14H2V13Z" fill="black"/>
<path d="M12 4H5V5H4V7H7V6H10V8H7V10H10V9H12V8H13V5H12V4Z" fill="black"/>
<path d="M7 11H10V13H7V11Z" fill="black"/>
<path d="M11 3H4V4H3V6H6V5H9V7H6V9H9V8H11V7H12V4H11V3Z" fill="#FCB5A8"/>
<path d="M6 10H9V12H6V10Z" fill="#FCB5A8"/>
</svg>
