<svg width="48" height="23" viewBox="0 0 48 23" fill="none" xmlns="http://www.w3.org/2000/svg">
<path d="M11 1H20V2H22V5H25V3H27V1H37V2H38V5H40V8H45V9H47V16H45V19H43V21H37V20H33V21H31V22H27V21H25V20H24V21H20V20H17V22H11V21H9V20H8V19H3V17H1V11H3V9H8V5H9V3H11V1Z" fill="white"/>
<path d="M34 4H33V7H34V4Z" fill="black"/>
<path d="M30 4H31V7H30V4Z" fill="black"/>
<path d="M18 4H17V7H18V4Z" fill="black"/>
<path d="M14 4H15V7H14V4Z" fill="black"/>
<path fill-rule="evenodd" clip-rule="evenodd" d="M19 0H13V1H11V2H10V3H9V5H8V7H7V8H5V9H3V10H2V11H1V13H0V15H1V17H2V18H3V19H5V20H8V21H9V22H11V23H15V22H17V21H18V20H19V21H21V22H24V21H25V22H27V23H31V22H33V21H34V20H35V21H37V22H41V21H43V20H44V19H45V17H46V16H47V14H48V11H47V9H46V8H44V7H40V5H39V3H38V2H37V1H35V0H29V1H27V2H26V3H25V5H23V3H22V2H21V1H19V0ZM19 1V2H21V3H22V5H23V7H25V5H26V3H27V2H29V1H35V2H37V3H38V5H39V7H40V8H44V9H46V11H47V14H46V16H44V19H43V20H41V21H37V20H35V19H33V21H31V22H27V21H25V20H24V21H21V20H19V19H17V21H15V22H11V21H9V20H8V19H5V18H3V17H2V15H1V13H2V11H3V10H5V9H8V7H9V5H10V3H11V2H13V1H19Z" fill="black"/>
<path fill-rule="evenodd" clip-rule="evenodd" d="M20 4H21V5H20V4ZM21 5H22V7H21V5Z" fill="#93FCEE"/>
<path d="M4 16H3V17H4V16Z" fill="#93FCEE"/>
<path d="M5 17H7V16H8V15H9V17H8V18H5V17Z" fill="#93FCEE"/>
<path d="M11 19H10V20H11V21H15V20H16V19H17V16H15V19H14V20H11V19Z" fill="#93FCEE"/>
<path d="M21 18H20V19H21V18Z" fill="#93FCEE"/>
<path d="M22 19H24V20H22V19Z" fill="#93FCEE"/>
<path d="M25 15H24V17H25V15Z" fill="#93FCEE"/>
<path fill-rule="evenodd" clip-rule="evenodd" d="M26 19H27V20H26V19ZM27 20H30V19H31V16H33V19H32V20H31V21H27V20Z" fill="#93FCEE"/>
<path d="M36 18H37V19H36V18Z" fill="#93FCEE"/>
<path d="M40 19H38V20H40V19Z" fill="#93FCEE"/>
<path fill-rule="evenodd" clip-rule="evenodd" d="M44 11H43V10H44V11ZM44 11V13H43V14H40V15H41V18H40V19H42V18H43V15H44V14H45V11H44Z" fill="#93FCEE"/>
<path fill-rule="evenodd" clip-rule="evenodd" d="M37 4H36V5H37V4ZM37 5H38V7H37V5Z" fill="#93FCEE"/>
</svg>
