<svg width="14" height="16" viewBox="0 0 14 16" fill="none" xmlns="http://www.w3.org/2000/svg">
<path d="M10 0H4V1H2V2H1V4H0V12H1V14H2V15H4V16H10V15H12V14H13V12H14V4H13V2H12V1H10V0Z" fill="black"/>
<path d="M8 1H5V2H3V3H2V5H1V11H2V13H3V14H5V15H8V14H10V13H11V11H12V5H11V3H10V2H8V1Z" fill="#FCB5A8"/>
<path d="M5 2H10V3H11V5H12V11H11V14H10V15H5V14H4V13H3V11H2V5H3V3H5V2Z" fill="#FC8E2E"/>
<path d="M9 3H8V12H5V13H9V3Z" fill="black"/>
<path d="M10 14V15H8V14H10Z" fill="black"/>
<path d="M10 14V13H12V14H10Z" fill="black"/>
<path d="M5 3V12H6V4H8V3H5Z" fill="#FCB5A8"/>
</svg>
