<svg width="16" height="16" viewBox="0 0 16 16" fill="none" xmlns="http://www.w3.org/2000/svg">
<path d="M6 1H10V4H12V5H15V10H12V14H10V15H6V14H4V10H1V5H4V4H6V1Z" fill="#FFAE4C"/>
<path d="M2 14H1V15H2V14Z" fill="#FFAE4C"/>
<path d="M14 13H15V14H14V13Z" fill="#FFAE4C"/>
<path d="M6 0H10V1H6V0Z" fill="black"/>
<path d="M7 5V7H6V5H7Z" fill="black"/>
<path d="M4 8H12V9H4V8Z" fill="black"/>
<path fill-rule="evenodd" clip-rule="evenodd" d="M7 4V2H6V1H4V2H3V3H4V4H3V5H1V6H0V9H1V10H2V11H3V13H1V14H0V16H6V14H5V13H4V12H5V11H10V12H11V13H10V15H16V13H15V12H11V11H14V10H15V9H16V6H15V5H13V4H12V3H13V2H12V1H10V2H9V4H7ZM7 5V4H6V3H5V4H4V5H3V6H1V9H2V10H14V9H15V6H13V5H12V4H11V3H10V4H9V5H7ZM9 5H10V7H9V5ZM15 13V14H14V13H15Z" fill="black"/>
<path d="M1 14H2V15H1V14Z" fill="black"/>
<path d="M5 3H6V4H7V5H6V7H5V3Z" fill="#FFBAAA"/>
<path d="M10 3H11V7H10V5H9V4H10V3Z" fill="#FFBAAA"/>
<path d="M13 8H12V10H13V8Z" fill="#FFBAAA"/>
<path d="M3 8H4V10H3V8Z" fill="#FFBAAA"/>
<path d="M5 11V13H6V14H10V13H11V12H10V11H5Z" fill="#FFBAAA"/>
</svg>
