<svg width="18" height="29" viewBox="0 0 18 29" fill="none" xmlns="http://www.w3.org/2000/svg">
<path fill-rule="evenodd" clip-rule="evenodd" d="M0 1H15V2H17V16H18V27H17H0V2V1Z" fill="#41D83D"/>
<path fill-rule="evenodd" clip-rule="evenodd" d="M9 0H0V1H1V2H2V1H4V2H5V1H8V2H10V1H14V2H16V3H17V10H16V14H17V16H18V14H17V11H18V3V2H17V1H15V0H10V1H9V0ZM3 3H4V4H3V3ZM6 5H5V6H6V5ZM9 3H10V4H9V3ZM13 3H12V4H13V3ZM14 6H15V7H14V6ZM13 11H12V12H13V11ZM13 14H14V15H13V14ZM8 14H7V15H8V14ZM3 11H4V12H3V11ZM7 9H6V10H7V9Z" fill="black"/>
<path fill-rule="evenodd" clip-rule="evenodd" d="M6 16H8V17H9V18H8V19H9V18H12V17H14V18H13V19H14V18H16V17H17V16H18V17V18H17V19H18V20V21V22V29H0V22V21H1V20H0V19V18V17H1V16H2V17H3V16H4V17H6V18H7V17H6V16ZM2 20V21H3V20H2ZM16 17H15V16H16V17ZM9 17V16H10V17H9ZM1 18V19H2V18H1ZM4 19H3V18H4V19ZM17 21V20H16V21H17ZM14 20H15V21H14V20ZM6 22H7V21H6V22ZM11 19V20H10V19H11ZM6 19V20H5V19H6Z" fill="#009F00"/>
</svg>
