<svg width="144" height="128" viewBox="0 0 144 128" fill="none" xmlns="http://www.w3.org/2000/svg">
<path d="M99.5 1H91.5V2H88.5V3H86.5V4H85.5V5H84.5V7H83.5V9H82.5V12H81.5V16H80.5V49H72.5V51H70.5V52H69.5V53H68.5V55H67.5V57H66.5V60H65.5V65H59.5V66H56.5V67H54.5V68H53.5V69H52.5V71H51.5V73H50.5V76H49.5V79.5H49V80.5H48V97.5H45V92.5H44V89.5H43V87.5H42V85.5H41V84.5H40V83.5H38V82.5H35V81.5H27V82.5H24V83.5H22V84.5H21V85.5H20V87.5H19V89.5H18V92.5H17V96.5H16V113.5H11V114.5H8V115.5H6V116.5H5V117.5H4V119.5H3V121.5H2V124.5H1V127.5H49.5V128H142.5V112H141.5V108H140.5V105H139.5V103H138.5V101H137.5V100H136.5V99H134.5V98H131.5V97H126.5V32H125.5V28H124.5V25H123.5V23H122.5V21H121.5V20H120.5V19H118.5V18H115.5V17H109.5V12H108.5V9H107.5V7H106.5V5H105.5V4H104.5V3H102.5V2H100V1.5H99.5V1Z" fill="#009F00"/>
<rect x="75.5" y="54" width="2" height="2" fill="black"/>
<rect x="81.5" y="54" width="2" height="2" fill="black"/>
<rect x="59.5" y="70" width="2" height="2" fill="black"/>
<rect x="65.5" y="70" width="2" height="2" fill="black"/>
<rect x="43.5" y="101" width="2" height="2" fill="black"/>
<rect x="49.5" y="101" width="2" height="2" fill="black"/>
<rect x="26.5" y="86" width="2" height="2" fill="black"/>
<rect x="32.5" y="86" width="2" height="2" fill="black"/>
<rect x="10.5" y="118" width="2" height="2" fill="black"/>
<rect x="16.5" y="118" width="2" height="2" fill="black"/>
<rect x="91.5" y="6" width="2" height="2" fill="black"/>
<rect x="97.5" y="6" width="2" height="2" fill="black"/>
<rect x="107.5" y="22" width="2" height="2" fill="black"/>
<rect x="113.5" y="22" width="2" height="2" fill="black"/>
<rect x="123.5" y="102" width="2" height="2" fill="black"/>
<rect x="129.5" y="102" width="2" height="2" fill="black"/>
<path d="M49 79.5V76M50 76V73M51 73V71M52 71V69M53 69V67.5M54 68V67M54.5 66.5H56.5M56.5 65.5H59.5M59.5 64.5H65M67.5 64.5H65M65 64.5V60M66 60V57M67 57V55M68 55V53M69 53V52M70 52V51M70.5 50.5H72.5M72.5 49.5H75.5M75.5 48.5H80M83.5 48.5H80M80 48.5V16M81 16V12M82 12V9M83 9V7M84 7V5M85 5V4M86 4V3M86.5 2.5H88.5M88.5 1.5H91.5M91.5 0.5H99.5M99.5 1.5H102.5M102.5 2.5H104.5M104.5 3.5H105.5M105.5 4.5H106.5M107 5V7M108 7V9M109 9V12M110 12V16.5H107.5H115.5M115.5 17.5H118.5M118.5 18.5H120.5M121 19V20M122 20V21M123 21V23M124 23V25M125 25V28M126 28V32M127 32V96.5H123.5H131.5M131.5 97.5H134.5M134.5 98.5H136.5M137 99V100M138 100V101M139 101V103M140 103V105M141 105V108M142 108V112M143 112V128H48H29.5M123.5 97.5H120.5M120.5 98.5H118.5M118.5 99.5H117.5M117.5 100.5H116.5M116 101V103M115 103V105M114 105V108M113 108V112M67.5 65.5H70.5M70.5 66.5H72.5M73 67V68M74 68V69M75 69V71M76 71V73M77 73V76M78 76V80M83.5 49.5H86.5M86.5 50.5H88.5M88.5 51.5H89.5M89.5 52.5H90.5M91 53V55M92 55V57M93 57V60M94 60V64M107.5 17.5H104.5M104.5 18.5H102.5M102 19V20M101 20V21M100 21V23M99 23V25M98 25V28M97 28V32M1.5 121.5V124.5H0.5V128H29.5M2.5 121.5V119.5M3.5 119.5V117.5M4.5 117.5V116.5M5.5 116.5V115.5M6 115H8M8 114H11M11 113H15.5M19 113H15.5M15.5 113V96.5M16.5 96.5V92.5M17.5 92.5V89.5M18.5 89.5V87.5M19.5 87.5V85.5M20.5 85.5V84.5M21.5 84.5V83.5M22 83H24M24 82H27M27 81H35M35 82H38M38 83H40M40.5 83.5V84.5M41.5 84.5V85.5M42.5 85.5V87.5M43.5 87.5V89.5M44.5 89.5V92.5M45.5 92.5V97M43.5 97H47.5M51 97H47.5M47.5 97V80.5M51 98H54M54 99H56M56 100H57M57 101H58M58.5 101.5V103.5M59.5 103.5V105.5M60.5 105.5V108.5M61.5 108.5V112.5M43 98H40M40 99H38M37.5 99.5V100.5M36.5 100.5V101.5M35.5 101.5V103.5M34.5 103.5V105.5M33.5 105.5V108.5M32.5 108.5V112.5M19 114H22M22 115H24M24.5 115.5V116.5M25.5 116.5V117.5M26.5 117.5V119.5M27.5 119.5V121.5M28.5 121.5V124.5M29.5 124.5V128M48.5 79.5V80.5" stroke="black"/>
</svg>
