<svg width="40" height="8" viewBox="0 0 40 8" fill="none" xmlns="http://www.w3.org/2000/svg">
<path d="M7 0H1V1H0V7H1V8H7V7H8V1H7V0Z" fill="black"/>
<path d="M6 1H2V2H1V6H2V7H6V6H7V2H6V1Z" fill="#D82800"/>
<path d="M15 0H9V1H8V7H9V8H15V7H16V1H15V0Z" fill="black"/>
<path d="M14 1H10V2H9V6H10V7H14V6H15V2H14V1Z" fill="#D82800"/>
<path d="M23 0H17V1H16V7H17V8H23V7H24V1H23V0Z" fill="black"/>
<path d="M22 1H18V2H17V6H18V7H22V6H23V2H22V1Z" fill="#D82800"/>
<path d="M22 1H18V2H17V6H18V7H22V6H23V2H22V1Z" fill="#4CDC48"/>
<path d="M31 0H25V1H24V7H25V8H31V7H32V1H31V0Z" fill="black"/>
<path d="M30 1H26V2H25V6H26V7H30V6H31V2H30V1Z" fill="#D82800"/>
<path d="M39 0H33V1H32V7H33V8H39V7H40V1H39V0Z" fill="black"/>
<path d="M38 1H34V2H33V6H34V7H38V6H39V2H38V1Z" fill="#D82800"/>
</svg>
