<svg width="56" height="8" viewBox="0 0 56 8" fill="none" xmlns="http://www.w3.org/2000/svg">
<path fill-rule="evenodd" clip-rule="evenodd" d="M15 0H9V1H8V7H9V8H15V7H16V1H15V0Z" fill="black"/>
<path fill-rule="evenodd" clip-rule="evenodd" d="M14 1H10V2H9V6H10V7H14V6H15V2H14V1Z" fill="#D82800"/>
<path fill-rule="evenodd" clip-rule="evenodd" d="M7 0H1V1H0V7H1V8H7V7H8V1H7V0Z" fill="black"/>
<path fill-rule="evenodd" clip-rule="evenodd" d="M6 1H2V2H1V6H2V7H6V6H7V2H6V1Z" fill="#D82800"/>
<path fill-rule="evenodd" clip-rule="evenodd" d="M23 0H17V1H16V7H17V8H23V7H24V1H23V0Z" fill="black"/>
<path fill-rule="evenodd" clip-rule="evenodd" d="M22 1H18V2H17V6H18V7H22V6H23V2H22V1Z" fill="#D82800"/>
<path fill-rule="evenodd" clip-rule="evenodd" d="M31 0H25V1H24V7H25V8H31V7H32V1H31V0Z" fill="black"/>
<path fill-rule="evenodd" clip-rule="evenodd" d="M30 1H26V2H25V6H26V7H30V6H31V2H30V1Z" fill="#D82800"/>
<path fill-rule="evenodd" clip-rule="evenodd" d="M30 1H26V2H25V6H26V7H30V6H31V2H30V1Z" fill="#4CDC48"/>
<path fill-rule="evenodd" clip-rule="evenodd" d="M39 0H33V1H32V7H33V8H39V7H40V1H39V0Z" fill="black"/>
<path fill-rule="evenodd" clip-rule="evenodd" d="M38 1H34V2H33V6H34V7H38V6H39V2H38V1Z" fill="#D82800"/>
<path fill-rule="evenodd" clip-rule="evenodd" d="M47 0H41V1H40V7H41V8H47V7H48V1H47V0Z" fill="black"/>
<path fill-rule="evenodd" clip-rule="evenodd" d="M46 1H42V2H41V6H42V7H46V6H47V2H46V1Z" fill="#D82800"/>
<path fill-rule="evenodd" clip-rule="evenodd" d="M55 0H49V1H48V7H49V8H55V7H56V1H55V0Z" fill="black"/>
<path fill-rule="evenodd" clip-rule="evenodd" d="M54 1H50V2H49V6H50V7H54V6H55V2H54V1Z" fill="#D82800"/>
</svg>
